<svg width="1192" height="902" viewBox="0 0 1192 902" fill="none" xmlns="http://www.w3.org/2000/svg">
<g clip-path="url(#clip0_103_3)">
<path d="M59.472 58.1535C62.899 65.9774 68.8479 70.4594 75.0001 76.1852C82.9886 83.62 90.8867 91.0479 99.1467 98.1841" stroke="#FFBE58" stroke-width="12" stroke-linecap="round"/>
<path d="M112.502 112.448C118.618 121.784 126.873 128.591 135.355 135.732C143.41 142.513 151.694 149.011 159.966 155.524" stroke="#FFBE58" stroke-width="12" stroke-linecap="round"/>
<path d="M65.4188 163.156C68.1668 156.027 72.7332 151.283 77.6885 145.609C85.1857 137.023 91.8969 128.241 98.2651 118.805" stroke="#FFBE58" stroke-width="12" stroke-linecap="round"/>
<path d="M113.886 98.6531C126.668 84.1272 137.848 68.4278 149.516 53.0152" stroke="#FFBE58" stroke-width="12" stroke-linecap="round"/>
<path d="M109.787 89.4599L106.249 77.1689" stroke="#FFBE58" stroke-width="12" stroke-linecap="round"/>
<path d="M108.911 128.661L108.832 139.21" stroke="#FFBE58" stroke-width="12" stroke-linecap="round"/>
<path d="M130.925 102.534L139.761 100.803" stroke="#FFBE58" stroke-width="12" stroke-linecap="round"/>
<path d="M83.3547 106.606C75.9033 110.603 68.2733 113.161 60.3999 116.162" stroke="#FFBE58" stroke-width="12" stroke-linecap="round"/>
</g>
<g clip-path="url(#clip1_103_3)">
<path d="M1132.53 58.1535C1129.1 65.9774 1123.15 70.4594 1117 76.1852C1109.01 83.62 1101.11 91.0479 1092.85 98.1841" stroke="#FFBE58" stroke-width="12" stroke-linecap="round"/>
<path d="M1079.5 112.448C1073.38 121.784 1065.13 128.591 1056.65 135.732C1048.59 142.513 1040.31 149.011 1032.03 155.524" stroke="#FFBE58" stroke-width="12" stroke-linecap="round"/>
<path d="M1126.58 163.156C1123.83 156.027 1119.27 151.283 1114.31 145.609C1106.81 137.023 1100.1 128.241 1093.73 118.805" stroke="#FFBE58" stroke-width="12" stroke-linecap="round"/>
<path d="M1078.11 98.6531C1065.33 84.1272 1054.15 68.4278 1042.48 53.0152" stroke="#FFBE58" stroke-width="12" stroke-linecap="round"/>
<path d="M1082.21 89.4599L1085.75 77.1689" stroke="#FFBE58" stroke-width="12" stroke-linecap="round"/>
<path d="M1083.09 128.661L1083.17 139.21" stroke="#FFBE58" stroke-width="12" stroke-linecap="round"/>
<path d="M1061.07 102.534L1052.24 100.803" stroke="#FFBE58" stroke-width="12" stroke-linecap="round"/>
<path d="M1108.65 106.606C1116.1 110.603 1123.73 113.161 1131.6 116.162" stroke="#FFBE58" stroke-width="12" stroke-linecap="round"/>
</g>
<g clip-path="url(#clip2_103_3)">
<path d="M59.472 844.327C62.899 836.504 68.8479 832.022 75.0001 826.296C82.9886 818.861 90.8867 811.433 99.1467 804.297" stroke="#FFBE58" stroke-width="12" stroke-linecap="round"/>
<path d="M112.502 790.033C118.618 780.697 126.873 773.89 135.355 766.749C143.41 759.967 151.694 753.47 159.966 746.956" stroke="#FFBE58" stroke-width="12" stroke-linecap="round"/>
<path d="M65.4188 739.325C68.1668 746.453 72.7332 751.198 77.6885 756.872C85.1857 765.457 91.8969 774.239 98.2651 783.676" stroke="#FFBE58" stroke-width="12" stroke-linecap="round"/>
<path d="M113.886 803.827C126.668 818.353 137.848 834.053 149.516 849.465" stroke="#FFBE58" stroke-width="12" stroke-linecap="round"/>
<path d="M109.787 813.02L106.249 825.311" stroke="#FFBE58" stroke-width="12" stroke-linecap="round"/>
<path d="M108.911 773.819L108.832 763.27" stroke="#FFBE58" stroke-width="12" stroke-linecap="round"/>
<path d="M130.925 799.946L139.761 801.677" stroke="#FFBE58" stroke-width="12" stroke-linecap="round"/>
<path d="M83.3547 795.875C75.9033 791.877 68.2733 789.32 60.3999 786.318" stroke="#FFBE58" stroke-width="12" stroke-linecap="round"/>
</g>
<g clip-path="url(#clip3_103_3)">
<path d="M1132.53 844.327C1129.1 836.504 1123.15 832.022 1117 826.296C1109.01 818.861 1101.11 811.433 1092.85 804.297" stroke="#FFBE58" stroke-width="12" stroke-linecap="round"/>
<path d="M1079.5 790.033C1073.38 780.697 1065.13 773.89 1056.65 766.749C1048.59 759.967 1040.31 753.47 1032.03 746.956" stroke="#FFBE58" stroke-width="12" stroke-linecap="round"/>
<path d="M1126.58 739.325C1123.83 746.453 1119.27 751.198 1114.31 756.872C1106.81 765.457 1100.1 774.239 1093.73 783.676" stroke="#FFBE58" stroke-width="12" stroke-linecap="round"/>
<path d="M1078.11 803.827C1065.33 818.353 1054.15 834.053 1042.48 849.465" stroke="#FFBE58" stroke-width="12" stroke-linecap="round"/>
<path d="M1082.21 813.02L1085.75 825.311" stroke="#FFBE58" stroke-width="12" stroke-linecap="round"/>
<path d="M1083.09 773.819L1083.17 763.27" stroke="#FFBE58" stroke-width="12" stroke-linecap="round"/>
<path d="M1061.07 799.946L1052.24 801.677" stroke="#FFBE58" stroke-width="12" stroke-linecap="round"/>
<path d="M1108.65 795.875C1116.1 791.877 1123.73 789.32 1131.6 786.318" stroke="#FFBE58" stroke-width="12" stroke-linecap="round"/>
</g>
<defs>
<clipPath id="clip0_103_3">
<rect width="154" height="152" fill="white" transform="translate(0 109) rotate(-45)"/>
</clipPath>
<clipPath id="clip1_103_3">
<rect width="154" height="152" fill="white" transform="matrix(-0.707107 -0.707107 -0.707107 0.707107 1192 109)"/>
</clipPath>
<clipPath id="clip2_103_3">
<rect width="154" height="152" fill="white" transform="matrix(0.707107 0.707107 0.707107 -0.707107 0 793.48)"/>
</clipPath>
<clipPath id="clip3_103_3">
<rect width="154" height="152" fill="white" transform="translate(1192 793.48) rotate(135)"/>
</clipPath>
</defs>
</svg>
