<svg width="1158" height="898" viewBox="0 0 1158 898" fill="none" xmlns="http://www.w3.org/2000/svg">
<g clip-path="url(#clip0_95_9)">
<g clip-path="url(#clip1_95_9)">
<path d="M94.7881 102.795C80.0061 84.6234 47.3264 55.3146 54.1318 26.6317C57.2331 13.5606 72.1442 40.8165 74.4673 45.098C81.283 57.6593 85.5817 72.369 88.9117 86.2403C89.3321 87.991 93.4028 103.572 93.7589 96.7819" stroke="#E96736" stroke-width="12" stroke-linecap="round"/>
<path d="M98.5588 101.504C82.8616 87.9727 60.6998 65.778 38.239 64.7533C34.6341 64.5889 29.6081 64.69 26.8848 67.5114C23.1536 71.3769 23.5338 79.5295 28.8786 81.7626C38.0734 85.604 49.6048 85.7625 59.2919 88.0251C68.3377 90.1377 77.3793 92.671 85.7114 96.8564C87.2052 97.6069 94.1772 103.483 92.9629 102.25" stroke="#E96736" stroke-width="12" stroke-linecap="round"/>
<path d="M99.6475 97.5738C85.1685 80.4985 78.7103 62.8661 76.7305 40.369C76.4719 37.4308 78.5257 9.80022 83.9284 15.1864C107.896 39.0804 92.8196 76.5686 96.1531 105.333" stroke="#E96736" stroke-width="12" stroke-linecap="round"/>
</g>
<g clip-path="url(#clip2_95_9)">
<path d="M1063.21 102.795C1077.99 84.6234 1110.67 55.3146 1103.87 26.6317C1100.77 13.5606 1085.86 40.8165 1083.53 45.098C1076.72 57.6593 1072.42 72.369 1069.09 86.2403C1068.67 87.991 1064.6 103.572 1064.24 96.7819" stroke="#E96736" stroke-width="12" stroke-linecap="round"/>
<path d="M1059.44 101.504C1075.14 87.9727 1097.3 65.778 1119.76 64.7533C1123.37 64.5889 1128.39 64.69 1131.12 67.5114C1134.85 71.3769 1134.47 79.5295 1129.12 81.7626C1119.93 85.604 1108.4 85.7625 1098.71 88.0251C1089.66 90.1377 1080.62 92.671 1072.29 96.8564C1070.79 97.6069 1063.82 103.483 1065.04 102.25" stroke="#E96736" stroke-width="12" stroke-linecap="round"/>
<path d="M1058.35 97.5738C1072.83 80.4985 1079.29 62.8661 1081.27 40.369C1081.53 37.4308 1079.47 9.80022 1074.07 15.1864C1050.1 39.0804 1065.18 76.5686 1061.85 105.333" stroke="#E96736" stroke-width="12" stroke-linecap="round"/>
</g>
<g clip-path="url(#clip3_95_9)">
<path d="M94.7881 795.288C80.0061 813.461 47.3264 842.769 54.1318 871.452C57.2331 884.523 72.1442 857.267 74.4673 852.986C81.283 840.425 85.5817 825.715 88.9117 811.844C89.3321 810.093 93.4028 794.512 93.7589 801.302" stroke="#E96736" stroke-width="12" stroke-linecap="round"/>
<path d="M98.5588 796.58C82.8616 810.111 60.6998 832.305 38.239 833.33C34.6341 833.495 29.6081 833.393 26.8848 830.572C23.1536 826.707 23.5338 818.554 28.8786 816.321C38.0734 812.479 49.6048 812.321 59.2919 810.058C68.3377 807.946 77.3793 805.412 85.7114 801.227C87.2052 800.477 94.1772 794.6 92.9629 795.834" stroke="#E96736" stroke-width="12" stroke-linecap="round"/>
<path d="M99.6475 800.51C85.1685 817.585 78.7103 835.217 76.7305 857.714C76.4719 860.653 78.5257 888.283 83.9284 882.897C107.896 859.003 92.8196 821.515 96.1531 792.751" stroke="#E96736" stroke-width="12" stroke-linecap="round"/>
</g>
<g clip-path="url(#clip4_95_9)">
<path d="M1063.21 795.288C1077.99 813.461 1110.67 842.769 1103.87 871.452C1100.77 884.523 1085.86 857.267 1083.53 852.986C1076.72 840.425 1072.42 825.715 1069.09 811.844C1068.67 810.093 1064.6 794.512 1064.24 801.302" stroke="#E96736" stroke-width="12" stroke-linecap="round"/>
<path d="M1059.44 796.58C1075.14 810.111 1097.3 832.305 1119.76 833.33C1123.37 833.495 1128.39 833.393 1131.12 830.572C1134.85 826.707 1134.47 818.554 1129.12 816.321C1119.93 812.479 1108.4 812.321 1098.71 810.058C1089.66 807.946 1080.62 805.412 1072.29 801.227C1070.79 800.477 1063.82 794.6 1065.04 795.834" stroke="#E96736" stroke-width="12" stroke-linecap="round"/>
<path d="M1058.35 800.51C1072.83 817.585 1079.29 835.217 1081.27 857.714C1081.53 860.653 1079.47 888.283 1074.07 882.897C1050.1 859.003 1065.18 821.515 1061.85 792.751" stroke="#E96736" stroke-width="12" stroke-linecap="round"/>
</g>
</g>
<defs>
<clipPath id="clip0_95_9">
<rect width="1158" height="898" fill="white"/>
</clipPath>
<clipPath id="clip1_95_9">
<rect width="97" height="106" fill="white" transform="translate(0 44.084) rotate(-27.0311)"/>
</clipPath>
<clipPath id="clip2_95_9">
<rect width="97" height="106" fill="white" transform="matrix(-0.89076 -0.454474 -0.454474 0.89076 1158 44.084)"/>
</clipPath>
<clipPath id="clip3_95_9">
<rect width="97" height="106" fill="white" transform="matrix(0.89076 0.454474 0.454474 -0.89076 0 854)"/>
</clipPath>
<clipPath id="clip4_95_9">
<rect width="97" height="106" fill="white" transform="translate(1158 854) rotate(152.969)"/>
</clipPath>
</defs>
</svg>
